<svg width="316" height="115" viewBox="0 0 316 115" fill="none" xmlns="http://www.w3.org/2000/svg">
<path d="M38.1709 58.3294C39.8931 58.5098 42.1449 59.7333 43.7965 58.451C41.4427 58.0274 39.1202 56.8157 36.9508 56.0039C39.1752 55.0863 42.1174 56.949 44.0671 55.0039C41.6702 54.9529 39.1948 54.1216 36.9233 53.6549C38.979 52.4039 42.1763 53.7843 43.7965 51.5569C41.4191 51.8824 38.8456 51.4471 36.5271 51.3451C38.3631 49.7765 41.7369 50.6471 42.9883 48.2078C40.6934 48.9059 38.0806 48.8745 35.7778 49.1373C37.347 47.3098 40.811 47.6353 41.6623 45.0157C39.5008 46.0588 36.9194 46.4431 34.6833 47.0588C35.9465 45.0078 39.4223 44.7882 39.8538 42.0667C37.8923 43.4392 35.3934 44.2196 33.2828 45.1765C34.2086 42.9529 37.5981 42.1922 37.5981 39.4392C35.8681 41.098 33.5299 42.2588 31.5959 43.5373C32.1608 41.1843 35.4012 39.9137 34.9697 37.1922C33.5221 39.1059 31.3919 40.6157 29.6815 42.1804C29.8737 39.7804 32.8709 38.0078 32.0353 35.3882C30.9055 37.498 29.0381 39.3098 27.5944 41.1373C27.4101 38.7373 30.0895 36.5176 28.842 34.0784C28.0574 36.3451 26.4881 38.4392 25.3544 40.4549C24.7973 38.102 27.0962 35.502 25.476 33.2706C25.0563 35.6235 23.844 37.9451 23.032 40.1137C22.114 37.8902 23.9774 34.949 22.0316 33C21.9806 35.3961 21.1489 37.8706 20.6821 40.1412C19.4307 38.0863 20.8116 34.8902 18.5833 33.2706C18.9089 35.6471 18.4734 38.2235 18.3714 40.5373C16.8022 38.702 17.6731 35.3294 15.233 34.0784C15.9274 36.3725 15.9 38.9843 16.1628 41.2863C14.3347 39.7176 14.6603 36.2549 12.0397 35.4039C13.0832 37.5608 13.4677 40.1451 14.0836 42.3765C12.0122 41.0824 11.7769 37.6078 9.06999 37.1765C10.4391 39.1373 11.2237 41.6353 12.1809 43.7451C9.95659 42.8196 9.19553 39.4314 6.44158 39.4314C8.10101 41.1608 9.26222 43.498 10.5411 45.4314C8.18732 44.8667 6.91626 41.6314 4.19369 42.0588C6.1042 43.5059 7.61848 45.6353 9.18376 47.3451C6.78288 47.1529 5.00968 44.1569 2.38911 44.9922C4.49969 46.1216 6.31212 47.9882 8.14024 49.4314C5.73936 49.6157 3.51894 46.9373 1.07883 48.1843C3.34633 48.9686 5.44121 50.5373 7.45764 51.6745C5.10383 52.2314 2.50288 49.9294 0.270687 51.549C2.62449 51.9686 4.94691 53.1804 7.11634 53.9961C4.89199 54.9098 1.94973 53.0471 0 54.9961C2.39696 55.0431 4.87238 55.8784 7.1438 56.3412C5.08814 57.5922 1.89089 56.2118 0.270687 58.4431C2.64803 58.1137 5.22152 58.549 7.54002 58.6549C5.70405 60.2235 2.33027 59.349 1.07883 61.7922C3.37379 61.098 5.98651 61.1255 8.28932 60.8627C6.72011 62.6902 3.2561 62.3647 2.4048 64.9843C4.56246 63.9412 7.14772 63.5608 9.37991 62.9412C8.1167 64.9922 4.64092 65.2118 4.20939 67.9333C6.17089 66.5647 8.66985 65.7843 10.7804 64.8235C9.8546 67.0471 6.46512 67.8078 6.46512 70.5608C8.19516 68.902 10.5333 67.7412 12.4673 66.4627C11.9024 68.8157 8.662 70.0863 9.09353 72.8078C10.5411 70.898 12.6713 69.3843 14.3817 67.8196C14.1895 70.2196 11.1923 71.9922 12.0279 74.6157C13.1578 72.502 15.0251 70.6745 16.4688 68.8627C16.6532 71.2627 13.9738 73.4824 15.2213 75.9216C16.0059 73.6588 17.5751 71.5608 18.7088 69.5451C19.2659 71.898 16.967 74.498 18.5872 76.7294C19.007 74.3765 20.2192 72.0549 21.0312 69.8863C21.9492 72.1137 20.0858 75.051 22.0355 77C22.0826 74.6039 22.9143 72.1294 23.3811 69.8588C24.6326 71.9137 23.2517 75.1098 25.4799 76.7294C25.1543 74.3529 25.5898 71.7804 25.6957 69.4667C27.2649 71.298 26.3901 74.6706 28.8341 75.9216C28.1397 73.6275 28.1672 71.0157 27.9044 68.7137C29.7325 70.2824 29.4069 73.7451 32.0274 74.5961C30.9839 72.4353 30.5995 69.8549 29.9836 67.6196C32.0353 68.8824 32.255 72.3569 34.9775 72.7882C33.6084 70.8274 32.8238 68.3294 31.8666 66.2196C34.0909 67.1451 34.852 70.5333 37.606 70.5333C35.9465 68.8078 34.7853 66.4667 33.5064 64.5333C35.8602 65.098 37.1313 68.3373 39.8538 67.9059C37.9433 66.4588 36.429 64.3294 34.8638 62.6196C37.2646 62.8118 39.0378 65.8078 41.6623 64.9725C39.5478 63.8431 37.7197 61.9765 35.9073 60.5333C38.3082 60.349 40.5286 63.0275 42.9687 61.7804C40.7051 60.9961 38.6063 59.4275 36.5899 58.2941C37.1035 58.1533 37.6455 58.1533 38.1591 58.2941M30.3405 60.0902L26.7 58.5216L25.2328 62.2039L23.7813 58.5608L20.1407 60.1294L21.7099 56.4941L18.0301 55.0275L21.7099 53.5608L20.1407 49.9216L23.7813 51.4902L25.2446 47.8078L26.7118 51.4863L30.3523 49.9176L28.7831 53.5569L32.4629 55.0235L28.7831 56.4902L30.3405 60.0902ZM24.9778 43.4078C18.6657 43.4078 13.2088 48.3216 13.2088 54.9412C13.2088 61.5608 18.7559 66.4706 24.9778 66.4706C27.9763 66.472 30.8671 65.353 33.0827 63.3333C30.9525 66.7726 25.629 69.2431 22.5887 69.2431H20.4075C19.375 69.1054 18.3518 68.905 17.3436 68.6431C15.2094 67.9892 13.2539 66.8541 11.6278 65.3255C9.05038 62.9725 7.19087 58.6078 7.19087 55.8667V53.9922C7.19087 52.7529 7.90486 50.3176 8.3207 49.3255C8.93951 47.8061 9.83769 46.4161 10.9687 45.2274C14.2797 41.8 18.0537 40.6235 21.502 40.6235C24.3729 40.6105 27.1801 41.4693 29.552 43.0863C30.7289 43.8706 32.3334 45.3216 33.1102 46.5922C30.9072 44.529 27.9965 43.3893 24.9778 43.4078Z" fill="white"/>
<path d="M56.3745 68.3978C57.1567 68.3978 57.7846 68.1998 58.2584 67.8148C58.7321 67.4188 58.9745 66.8908 58.9745 66.2418C58.9745 65.8458 58.8423 65.4828 58.699 65.2518C58.5668 64.9988 58.1812 64.7348 57.9609 64.6028C57.8507 64.5258 57.6745 64.4488 57.4431 64.3608C57.2118 64.2618 57.0355 64.1958 56.9143 64.1628L56.3194 63.9538C55.7135 63.7558 55.2728 63.5578 55.0084 63.3708C54.744 63.1838 54.6118 62.8978 54.6118 62.5128C54.6118 61.6768 55.2508 61.1818 56.2092 61.1818C57.1236 61.1818 57.7516 61.6108 58.1041 62.4578L58.7541 62.0948C58.3245 61.1268 57.4101 60.4338 56.2092 60.4338C55.5372 60.4338 54.9754 60.6208 54.5237 61.0058C54.072 61.3798 53.8406 61.8968 53.8406 62.5458C53.8406 63.2168 54.1381 63.7228 54.722 64.0748C54.9754 64.2398 55.5042 64.4488 56.3084 64.7128C56.9804 64.9328 57.4652 65.1418 57.7626 65.3508C58.0601 65.5598 58.2033 65.8568 58.2033 66.2638C58.2033 67.0998 57.5313 67.6498 56.3855 67.6498C55.2067 67.6498 54.4466 67.0888 54.1711 66.1318L53.5101 66.5168C53.9067 67.6938 54.9643 68.3978 56.3745 68.3978Z" fill="white"/>
<path d="M64.0661 65.6478C64.0661 67.0448 63.339 67.6938 62.2814 67.6938C61.3229 67.6938 60.7831 67.1218 60.7831 66.1428V62.7658H60.056V66.1428C60.056 67.5178 60.8823 68.3978 62.2153 68.3978C63.0415 68.3978 63.6585 68.0678 64.0661 67.4078V68.2658H64.7932V62.7658H64.0661V65.6478Z" fill="white"/>
<path d="M69.2838 62.6338C68.3034 62.6338 67.5652 63.0408 67.0585 63.8438V62.7658H66.3313V70.4658H67.0585V67.1878C67.5652 67.9908 68.3034 68.3978 69.2838 68.3978C70.066 68.3978 70.7381 68.1228 71.2889 67.5618C71.8508 67.0008 72.1262 66.3188 72.1262 65.5158C72.1262 64.7128 71.8508 64.0308 71.2889 63.4698C70.7381 62.9088 70.066 62.6338 69.2838 62.6338ZM67.6864 67.0668C67.2678 66.6378 67.0585 66.1208 67.0585 65.5158C67.0585 64.9108 67.2678 64.3938 67.6864 63.9758C68.1051 63.5468 68.6228 63.3378 69.2288 63.3378C69.8347 63.3378 70.3525 63.5468 70.7711 63.9758C71.1898 64.3938 71.3991 64.9108 71.3991 65.5158C71.3991 66.1208 71.1898 66.6378 70.7711 67.0668C70.3525 67.4848 69.8347 67.6938 69.2288 67.6938C68.6228 67.6938 68.1051 67.4848 67.6864 67.0668Z" fill="white"/>
<path d="M76.2877 62.6338C75.3072 62.6338 74.5691 63.0408 74.0623 63.8438V62.7658H73.3352V70.4658H74.0623V67.1878C74.5691 67.9908 75.3072 68.3978 76.2877 68.3978C77.0699 68.3978 77.7419 68.1228 78.2927 67.5618C78.8546 67.0008 79.13 66.3188 79.13 65.5158C79.13 64.7128 78.8546 64.0308 78.2927 63.4698C77.7419 62.9088 77.0699 62.6338 76.2877 62.6338ZM74.6902 67.0668C74.2716 66.6378 74.0623 66.1208 74.0623 65.5158C74.0623 64.9108 74.2716 64.3938 74.6902 63.9758C75.1089 63.5468 75.6267 63.3378 76.2326 63.3378C76.8385 63.3378 77.3563 63.5468 77.7749 63.9758C78.1936 64.3938 78.4029 64.9108 78.4029 65.5158C78.4029 66.1208 78.1936 66.6378 77.7749 67.0668C77.3563 67.4848 76.8385 67.6938 76.2326 67.6938C75.6267 67.6938 75.1089 67.4848 74.6902 67.0668Z" fill="white"/>
<path d="M84.9551 67.5728C85.5169 67.0118 85.8033 66.3298 85.8033 65.5158C85.8033 64.7018 85.5169 64.0198 84.9551 63.4698C84.3932 62.9088 83.7102 62.6338 82.9059 62.6338C82.1017 62.6338 81.4076 62.9088 80.8458 63.4698C80.2839 64.0198 80.0085 64.7018 80.0085 65.5158C80.0085 66.3298 80.2839 67.0118 80.8458 67.5728C81.4076 68.1228 82.1017 68.3978 82.9059 68.3978C83.7102 68.3978 84.3932 68.1228 84.9551 67.5728ZM81.3636 67.0668C80.9449 66.6378 80.7356 66.1208 80.7356 65.5158C80.7356 64.9108 80.9449 64.3938 81.3636 63.9758C81.7822 63.5468 82.3 63.3378 82.9059 63.3378C83.5119 63.3378 84.0296 63.5468 84.4483 63.9758C84.8669 64.3938 85.0762 64.9108 85.0762 65.5158C85.0762 66.1208 84.8669 66.6378 84.4483 67.0668C84.0296 67.4848 83.5119 67.6938 82.9059 67.6938C82.3 67.6938 81.7822 67.4848 81.3636 67.0668Z" fill="white"/>
<path d="M87.7472 62.7658H87.0201V68.2658H87.7472V65.2078C87.7472 63.9428 88.4853 63.3818 89.4879 63.3818V62.6778C88.6616 62.6778 88.0887 63.0078 87.7472 63.6788V62.7658Z" fill="white"/>
<path d="M93.5114 62.7658H91.925V61.2258L91.1979 61.4458V62.7658H90.0411V63.4698H91.1979V66.8028C91.1979 68.0788 91.969 68.4968 93.5114 68.2658V67.6278C92.4538 67.6718 91.925 67.7488 91.925 66.8028V63.4698H93.5114V62.7658Z" fill="white"/>
<path d="M96.9346 62.6338C96.0863 62.6338 95.4033 62.9088 94.8634 63.4588C94.3236 64.0088 94.0592 64.6908 94.0592 65.5158C94.0592 66.3518 94.3346 67.0448 94.8745 67.5838C95.4143 68.1228 96.1194 68.3978 96.9897 68.3978C98.0583 68.3978 98.9286 67.9138 99.4134 67.1328L98.7744 66.7588C98.4659 67.3198 97.838 67.6938 97.0007 67.6938C95.8219 67.6938 94.9516 66.9898 94.8084 65.8788H99.6447C99.6558 65.7358 99.6668 65.6148 99.6668 65.5378C99.6668 64.7568 99.4134 64.0748 98.9066 63.5028C98.4109 62.9198 97.7498 62.6338 96.9346 62.6338ZM96.9346 63.3378C97.4304 63.3378 97.871 63.5028 98.2456 63.8218C98.6202 64.1408 98.8405 64.5918 98.9176 65.1748H94.8084C94.9516 64.0858 95.7889 63.3378 96.9346 63.3378Z" fill="white"/>
<path d="M105.561 63.8438C105.054 63.0408 104.316 62.6338 103.335 62.6338C102.553 62.6338 101.881 62.9088 101.319 63.4698C100.768 64.0308 100.493 64.7128 100.493 65.5158C100.493 66.3188 100.768 67.0008 101.319 67.5618C101.881 68.1228 102.553 68.3978 103.335 68.3978C104.316 68.3978 105.054 67.9908 105.561 67.1878V68.2658H106.288V60.5658H105.561V63.8438ZM101.848 67.0668C101.429 66.6378 101.22 66.1208 101.22 65.5158C101.22 64.9108 101.429 64.3938 101.848 63.9758C102.267 63.5468 102.784 63.3378 103.39 63.3378C103.996 63.3378 104.514 63.5468 104.933 63.9758C105.351 64.3938 105.561 64.9108 105.561 65.5158C105.561 66.1208 105.351 66.6378 104.933 67.0668C104.514 67.4848 103.996 67.6938 103.39 67.6938C102.784 67.6938 102.267 67.4848 101.848 67.0668Z" fill="white"/>
<path d="M113.534 62.6338C112.553 62.6338 111.815 63.0408 111.308 63.8438V60.5658H110.581V68.2658H111.308V67.1878C111.815 67.9908 112.553 68.3978 113.534 68.3978C114.316 68.3978 114.988 68.1228 115.539 67.5618C116.101 67.0008 116.376 66.3188 116.376 65.5158C116.376 64.7128 116.101 64.0308 115.539 63.4698C114.988 62.9088 114.316 62.6338 113.534 62.6338ZM111.936 67.0668C111.518 66.6378 111.308 66.1208 111.308 65.5158C111.308 64.9108 111.518 64.3938 111.936 63.9758C112.355 63.5468 112.873 63.3378 113.479 63.3378C114.085 63.3378 114.603 63.5468 115.021 63.9758C115.44 64.3938 115.649 64.9108 115.649 65.5158C115.649 66.1208 115.44 66.6378 115.021 67.0668C114.603 67.4848 114.085 67.6938 113.479 67.6938C112.873 67.6938 112.355 67.4848 111.936 67.0668Z" fill="white"/>
<path d="M119.551 67.3748L117.48 62.7658H116.709L119.177 68.2988L119.034 68.6398C118.692 69.4758 118.185 69.8608 117.524 69.7838V70.4658C118.494 70.5428 119.32 69.8608 119.75 68.7718L122.107 62.7658H121.336L119.551 67.3748Z" fill="white"/>
<path d="M125.189 60.5658V61.2918H127.558V68.2658H128.329V61.2918H130.698V60.5658H125.189Z" fill="white"/>
<path d="M134.268 62.6338C133.441 62.6338 132.824 62.9638 132.417 63.6238V60.5658H131.69V68.2658H132.417V65.3838C132.417 63.9868 133.144 63.3378 134.202 63.3378C135.16 63.3378 135.7 63.9098 135.7 64.8888V68.2658H136.427V64.8888C136.427 63.5138 135.601 62.6338 134.268 62.6338Z" fill="white"/>
<path d="M140.378 62.6338C139.529 62.6338 138.846 62.9088 138.307 63.4588C137.767 64.0088 137.502 64.6908 137.502 65.5158C137.502 66.3518 137.778 67.0448 138.318 67.5838C138.857 68.1228 139.563 68.3978 140.433 68.3978C141.501 68.3978 142.372 67.9138 142.857 67.1328L142.218 66.7588C141.909 67.3198 141.281 67.6938 140.444 67.6938C139.265 67.6938 138.395 66.9898 138.252 65.8788H143.088C143.099 65.7358 143.11 65.6148 143.11 65.5378C143.11 64.7568 142.857 64.0748 142.35 63.5028C141.854 62.9198 141.193 62.6338 140.378 62.6338ZM140.378 63.3378C140.874 63.3378 141.314 63.5028 141.689 63.8218C142.063 64.1408 142.284 64.5918 142.361 65.1748H138.252C138.395 64.0858 139.232 63.3378 140.378 63.3378Z" fill="white"/>
<path d="M153.223 60.5658L150.656 64.8558L148.089 60.5658H147.131V68.2658H147.902V61.7318L150.601 66.2418H150.711L153.41 61.7318V68.2658H154.182V60.5658H153.223Z" fill="white"/>
<path d="M156.57 61.4458C156.779 61.2368 156.779 60.9068 156.57 60.6978C156.361 60.4888 156.03 60.4888 155.821 60.6978C155.612 60.9068 155.612 61.2368 155.821 61.4458C156.03 61.6548 156.361 61.6548 156.57 61.4458ZM156.559 68.2658V62.7658H155.832V68.2658H156.559Z" fill="white"/>
<path d="M160.68 62.6338C159.854 62.6338 159.237 62.9638 158.829 63.6238V62.7658H158.102V68.2658H158.829V65.3838C158.829 63.9868 159.556 63.3378 160.614 63.3378C161.572 63.3378 162.112 63.9098 162.112 64.8888V68.2658H162.839V64.8888C162.839 63.5138 162.013 62.6338 160.68 62.6338Z" fill="white"/>
<path d="M164.983 61.4458C165.193 61.2368 165.193 60.9068 164.983 60.6978C164.774 60.4888 164.443 60.4888 164.234 60.6978C164.025 60.9068 164.025 61.2368 164.234 61.4458C164.443 61.6548 164.774 61.6548 164.983 61.4458ZM164.972 68.2658V62.7658H164.245V68.2658H164.972Z" fill="white"/>
<path d="M167.088 64.2068C167.088 63.6458 167.617 63.3378 168.245 63.3378C168.917 63.3378 169.358 63.5908 169.567 64.1078L170.173 63.7558C169.853 63.0628 169.137 62.6338 168.245 62.6338C167.705 62.6338 167.253 62.7878 166.89 63.0848C166.537 63.3818 166.361 63.7558 166.361 64.2068C166.361 65.3948 167.518 65.6478 168.443 65.8788C169.071 66.0438 169.578 66.3188 169.578 66.8138C169.578 67.4188 169.027 67.6938 168.311 67.6938C167.573 67.6938 167.011 67.3418 166.802 66.7698L166.185 67.1328C166.482 67.8808 167.253 68.3978 168.311 68.3978C168.895 68.3978 169.38 68.2548 169.743 67.9578C170.118 67.6608 170.305 67.2868 170.305 66.8138C170.305 65.6258 169.148 65.3728 168.223 65.1418C167.595 64.9768 167.088 64.7018 167.088 64.2068Z" fill="white"/>
<path d="M174.222 62.7658H172.636V61.2258L171.909 61.4458V62.7658H170.752V63.4698H171.909V66.8028C171.909 68.0788 172.68 68.4968 174.222 68.2658V67.6278C173.165 67.6718 172.636 67.7488 172.636 66.8028V63.4698H174.222V62.7658Z" fill="white"/>
<path d="M176.161 62.7658H175.434V68.2658H176.161V65.2078C176.161 63.9428 176.899 63.3818 177.902 63.3818V62.6778C177.076 62.6778 176.503 63.0078 176.161 63.6788V62.7658Z" fill="white"/>
<path d="M181.187 67.3748L179.116 62.7658H178.345L180.813 68.2988L180.669 68.6398C180.328 69.4758 179.821 69.8608 179.16 69.7838V70.4658C180.13 70.5428 180.956 69.8608 181.386 68.7718L183.743 62.7658H182.972L181.187 67.3748Z" fill="white"/>
<path d="M191.992 67.5728C192.554 67.0118 192.84 66.3298 192.84 65.5158C192.84 64.7018 192.554 64.0198 191.992 63.4698C191.43 62.9088 190.747 62.6338 189.943 62.6338C189.139 62.6338 188.445 62.9088 187.883 63.4698C187.321 64.0198 187.046 64.7018 187.046 65.5158C187.046 66.3298 187.321 67.0118 187.883 67.5728C188.445 68.1228 189.139 68.3978 189.943 68.3978C190.747 68.3978 191.43 68.1228 191.992 67.5728ZM188.401 67.0668C187.982 66.6378 187.773 66.1208 187.773 65.5158C187.773 64.9108 187.982 64.3938 188.401 63.9758C188.819 63.5468 189.337 63.3378 189.943 63.3378C190.549 63.3378 191.067 63.5468 191.485 63.9758C191.904 64.3938 192.113 64.9108 192.113 65.5158C192.113 66.1208 191.904 66.6378 191.485 67.0668C191.067 67.4848 190.549 67.6938 189.943 67.6938C189.337 67.6938 188.819 67.4848 188.401 67.0668Z" fill="white"/>
<path d="M196.596 60.4338C195.109 60.3348 194.283 61.1048 194.283 62.5458V62.7658H193.346V63.4698H194.283V68.2658H195.01V63.4698H196.596V62.7658H195.01V62.5458C195.01 61.4898 195.528 61.0498 196.596 61.1378V60.4338Z" fill="white"/>
<path d="M203.838 68.3978C205.259 68.3978 206.548 67.6498 207.176 66.4948L206.493 66.1098C206.008 67.0448 204.983 67.6498 203.838 67.6498C202.879 67.6498 202.086 67.3418 201.48 66.7148C200.874 66.0878 200.566 65.3288 200.566 64.4158C200.566 63.5028 200.874 62.7438 201.48 62.1168C202.086 61.4898 202.879 61.1818 203.838 61.1818C204.983 61.1818 206.008 61.7868 206.493 62.7218L207.176 62.3258C206.526 61.1708 205.259 60.4338 203.838 60.4338C202.67 60.4338 201.7 60.8188 200.94 61.5888C200.18 62.3588 199.795 63.3048 199.795 64.4158C199.795 65.5268 200.18 66.4728 200.94 67.2428C201.7 68.0128 202.67 68.3978 203.838 68.3978Z" fill="white"/>
<path d="M212.212 65.6478C212.212 67.0448 211.485 67.6938 210.427 67.6938C209.469 67.6938 208.929 67.1218 208.929 66.1428V62.7658H208.202V66.1428C208.202 67.5178 209.028 68.3978 210.361 68.3978C211.187 68.3978 211.804 68.0678 212.212 67.4078V68.2658H212.939V62.7658H212.212V65.6478Z" fill="white"/>
<path d="M215.204 68.2658V60.2358H214.477V68.2658H215.204Z" fill="white"/>
<path d="M219.667 62.7658H218.08V61.2258L217.353 61.4458V62.7658H216.196V63.4698H217.353V66.8028C217.353 68.0788 218.124 68.4968 219.667 68.2658V67.6278C218.609 67.6718 218.08 67.7488 218.08 66.8028V63.4698H219.667V62.7658Z" fill="white"/>
<path d="M224.756 65.6478C224.756 67.0448 224.029 67.6938 222.972 67.6938C222.013 67.6938 221.473 67.1218 221.473 66.1428V62.7658H220.746V66.1428C220.746 67.5178 221.572 68.3978 222.905 68.3978C223.732 68.3978 224.349 68.0678 224.756 67.4078V68.2658H225.483V62.7658H224.756V65.6478Z" fill="white"/>
<path d="M227.749 62.7658H227.022V68.2658H227.749V65.2078C227.749 63.9428 228.487 63.3818 229.489 63.3818V62.6778C228.663 62.6778 228.09 63.0078 227.749 63.6788V62.7658Z" fill="white"/>
<path d="M232.697 62.6338C231.849 62.6338 231.166 62.9088 230.626 63.4588C230.086 64.0088 229.822 64.6908 229.822 65.5158C229.822 66.3518 230.097 67.0448 230.637 67.5838C231.177 68.1228 231.882 68.3978 232.752 68.3978C233.821 68.3978 234.691 67.9138 235.176 67.1328L234.537 66.7588C234.228 67.3198 233.601 67.6938 232.763 67.6938C231.584 67.6938 230.714 66.9898 230.571 65.8788H235.407C235.418 65.7358 235.429 65.6148 235.429 65.5378C235.429 64.7568 235.176 64.0748 234.669 63.5028C234.173 62.9198 233.512 62.6338 232.697 62.6338ZM232.697 63.3378C233.193 63.3378 233.634 63.5028 234.008 63.8218C234.383 64.1408 234.603 64.5918 234.68 65.1748H230.571C230.714 64.0858 231.551 63.3378 232.697 63.3378Z" fill="white"/>
<path d="M244.077 63.8438C243.571 63.0408 242.832 62.6338 241.852 62.6338C241.07 62.6338 240.398 62.9088 239.836 63.4698C239.285 64.0308 239.01 64.7128 239.01 65.5158C239.01 66.3188 239.285 67.0008 239.836 67.5618C240.398 68.1228 241.07 68.3978 241.852 68.3978C242.832 68.3978 243.571 67.9908 244.077 67.1878V68.2658H244.804V62.7658H244.077V63.8438ZM240.365 67.0668C239.946 66.6378 239.737 66.1208 239.737 65.5158C239.737 64.9108 239.946 64.3938 240.365 63.9758C240.783 63.5468 241.301 63.3378 241.907 63.3378C242.513 63.3378 243.031 63.5468 243.449 63.9758C243.868 64.3938 244.077 64.9108 244.077 65.5158C244.077 66.1208 243.868 66.6378 243.449 67.0668C243.031 67.4848 242.513 67.6938 241.907 67.6938C241.301 67.6938 240.783 67.4848 240.365 67.0668Z" fill="white"/>
<path d="M248.922 62.6338C248.096 62.6338 247.479 62.9638 247.071 63.6238V62.7658H246.344V68.2658H247.071V65.3838C247.071 63.9868 247.798 63.3378 248.856 63.3378C249.814 63.3378 250.354 63.9098 250.354 64.8888V68.2658H251.081V64.8888C251.081 63.5138 250.255 62.6338 248.922 62.6338Z" fill="white"/>
<path d="M257.224 63.8438C256.718 63.0408 255.979 62.6338 254.999 62.6338C254.217 62.6338 253.545 62.9088 252.983 63.4698C252.432 64.0308 252.157 64.7128 252.157 65.5158C252.157 66.3188 252.432 67.0008 252.983 67.5618C253.545 68.1228 254.217 68.3978 254.999 68.3978C255.979 68.3978 256.718 67.9908 257.224 67.1878V68.2658H257.951V60.5658H257.224V63.8438ZM253.512 67.0668C253.093 66.6378 252.884 66.1208 252.884 65.5158C252.884 64.9108 253.093 64.3938 253.512 63.9758C253.93 63.5468 254.448 63.3378 255.054 63.3378C255.66 63.3378 256.178 63.5468 256.596 63.9758C257.015 64.3938 257.224 64.9108 257.224 65.5158C257.224 66.1208 257.015 66.6378 256.596 67.0668C256.178 67.4848 255.66 67.6938 255.054 67.6938C254.448 67.6938 253.93 67.4848 253.512 67.0668Z" fill="white"/>
<path d="M261.694 60.5658V61.2918H264.063V68.2658H264.834V61.2918H267.203V60.5658H261.694Z" fill="white"/>
<path d="M271.821 67.5728C272.383 67.0118 272.669 66.3298 272.669 65.5158C272.669 64.7018 272.383 64.0198 271.821 63.4698C271.259 62.9088 270.576 62.6338 269.772 62.6338C268.967 62.6338 268.273 62.9088 267.712 63.4698C267.15 64.0198 266.874 64.7018 266.874 65.5158C266.874 66.3298 267.15 67.0118 267.712 67.5728C268.273 68.1228 268.967 68.3978 269.772 68.3978C270.576 68.3978 271.259 68.1228 271.821 67.5728ZM268.229 67.0668C267.811 66.6378 267.601 66.1208 267.601 65.5158C267.601 64.9108 267.811 64.3938 268.229 63.9758C268.648 63.5468 269.166 63.3378 269.772 63.3378C270.378 63.3378 270.895 63.5468 271.314 63.9758C271.733 64.3938 271.942 64.9108 271.942 65.5158C271.942 66.1208 271.733 66.6378 271.314 67.0668C270.895 67.4848 270.378 67.6938 269.772 67.6938C269.166 67.6938 268.648 67.4848 268.229 67.0668Z" fill="white"/>
<path d="M277.764 65.6478C277.764 67.0448 277.037 67.6938 275.979 67.6938C275.021 67.6938 274.481 67.1218 274.481 66.1428V62.7658H273.754V66.1428C273.754 67.5178 274.58 68.3978 275.913 68.3978C276.739 68.3978 277.356 68.0678 277.764 67.4078V68.2658H278.491V62.7658H277.764V65.6478Z" fill="white"/>
<path d="M280.756 62.7658H280.029V68.2658H280.756V65.2078C280.756 63.9428 281.494 63.3818 282.497 63.3818V62.6778C281.671 62.6778 281.098 63.0078 280.756 63.6788V62.7658Z" fill="white"/>
<path d="M284.231 61.4458C284.441 61.2368 284.441 60.9068 284.231 60.6978C284.022 60.4888 283.692 60.4888 283.482 60.6978C283.273 60.9068 283.273 61.2368 283.482 61.4458C283.692 61.6548 284.022 61.6548 284.231 61.4458ZM284.22 68.2658V62.7658H283.493V68.2658H284.22Z" fill="white"/>
<path d="M286.336 64.2068C286.336 63.6458 286.865 63.3378 287.493 63.3378C288.165 63.3378 288.606 63.5908 288.815 64.1078L289.421 63.7558C289.101 63.0628 288.385 62.6338 287.493 62.6338C286.953 62.6338 286.501 62.7878 286.138 63.0848C285.785 63.3818 285.609 63.7558 285.609 64.2068C285.609 65.3948 286.766 65.6478 287.691 65.8788C288.319 66.0438 288.826 66.3188 288.826 66.8138C288.826 67.4188 288.275 67.6938 287.559 67.6938C286.821 67.6938 286.259 67.3418 286.05 66.7698L285.433 67.1328C285.73 67.8808 286.501 68.3978 287.559 68.3978C288.143 68.3978 288.628 68.2548 288.991 67.9578C289.366 67.6608 289.553 67.2868 289.553 66.8138C289.553 65.6258 288.396 65.3728 287.471 65.1418C286.843 64.9768 286.336 64.7018 286.336 64.2068Z" fill="white"/>
<path d="M296.638 62.6338C295.845 62.6338 295.25 62.9638 294.853 63.6348C294.534 62.9638 293.972 62.6338 293.179 62.6338C292.452 62.6338 291.89 62.9418 291.493 63.5688V62.7658H290.766V68.2658H291.493V65.2188C291.493 63.9428 292.198 63.3378 293.08 63.3378C293.873 63.3378 294.369 63.8658 294.369 64.8338V68.2658H295.096V65.2188C295.096 63.9318 295.713 63.3378 296.627 63.3378C297.431 63.3378 297.971 63.8768 297.971 64.8338V68.2658H298.698V64.8338C298.698 63.4808 297.872 62.6338 296.638 62.6338Z" fill="white"/>
<g filter="url(#filter0_d_358_23573)">
<path d="M65.3984 40.3403C65.3471 40.9937 65.3085 41.6214 65.2828 42.2235C65.27 42.8256 65.2636 43.2867 65.2636 43.607C65.2636 43.8888 65.27 44.1579 65.2828 44.4141C65.2957 44.6703 65.3085 44.8881 65.3214 45.0674H64.8782C64.6727 43.9913 64.4094 43.1394 64.0882 42.5117C63.7799 41.884 63.4074 41.442 62.9707 41.1858C62.5339 40.9168 62.0201 40.7823 61.4292 40.7823H60.9861V51.7545C60.9861 52.2669 61.0375 52.6513 61.1402 52.9075C61.2558 53.1637 61.4614 53.3366 61.7568 53.4263C62.0522 53.5032 62.4826 53.548 63.0478 53.5608V53.9451C62.6495 53.9323 62.1165 53.9195 61.4485 53.9067C60.7934 53.8939 60.1062 53.8875 59.3868 53.8875C58.6804 53.8875 58.0124 53.8939 57.383 53.9067C56.7536 53.9195 56.2462 53.9323 55.8608 53.9451V53.5608C56.4389 53.548 56.8756 53.5032 57.171 53.4263C57.4665 53.3366 57.6656 53.1637 57.7683 52.9075C57.8711 52.6513 57.9225 52.2669 57.9225 51.7545V40.7823H57.4986C56.9077 40.7823 56.3939 40.9168 55.9572 41.1858C55.5204 41.442 55.1479 41.884 54.8396 42.5117C54.5313 43.1266 54.2616 43.9785 54.0304 45.0674H53.5872C53.6129 44.8881 53.6257 44.6703 53.6257 44.4141C53.6386 44.1579 53.645 43.8888 53.645 43.607C53.645 43.2867 53.6322 42.8256 53.6065 42.2235C53.5936 41.6214 53.5615 40.9937 53.5101 40.3403C54.101 40.3531 54.7433 40.3659 55.4369 40.3787C56.1434 40.3916 56.8499 40.398 57.5564 40.398C58.2629 40.398 58.8987 40.398 59.4639 40.398C60.042 40.398 60.6778 40.398 61.3714 40.398C62.0779 40.398 62.7844 40.3916 63.4909 40.3787C64.1974 40.3659 64.8332 40.3531 65.3984 40.3403Z" fill="white"/>
<path d="M73.4207 40.3019L78.1028 52.331C78.2826 52.7922 78.4817 53.1124 78.7001 53.2918C78.9313 53.4583 79.1368 53.548 79.3166 53.5608V53.9451C78.9313 53.9195 78.4753 53.9067 77.9486 53.9067C77.4348 53.8939 76.9146 53.8875 76.3879 53.8875C75.797 53.8875 75.2383 53.8939 74.7116 53.9067C74.185 53.9067 73.7675 53.9195 73.4592 53.9451V53.5608C74.1143 53.5352 74.5254 53.4263 74.6923 53.2341C74.8722 53.0292 74.8336 52.6 74.5767 51.9467L71.3012 43.0113L71.648 42.5117L68.7193 50.1212C68.3596 51.0692 68.1798 51.7865 68.1798 52.2733C68.1926 52.7601 68.3532 53.0932 68.6615 53.2726C68.9698 53.4391 69.3808 53.5352 69.8946 53.5608V53.9451C69.4707 53.9195 69.0661 53.9067 68.6808 53.9067C68.2954 53.8939 67.9036 53.8875 67.5054 53.8875C67.2228 53.8875 66.9531 53.8939 66.6962 53.9067C66.4521 53.9067 66.2337 53.9195 66.0411 53.9451V53.5608C66.3108 53.5096 66.587 53.3366 66.8696 53.042C67.1522 52.7473 67.4283 52.2477 67.6981 51.5431L72.0912 40.3019C72.2967 40.3147 72.5151 40.3211 72.7463 40.3211C72.9904 40.3211 73.2151 40.3147 73.4207 40.3019ZM74.7694 48.411V48.7953H69.0276L69.2203 48.411H74.7694Z" fill="white"/>
<path d="M81.0018 40.3403C81.323 40.3531 81.7533 40.3659 82.2928 40.3787C82.8451 40.3916 83.3911 40.398 83.9306 40.398C84.5471 40.398 85.1444 40.3916 85.7225 40.3787C86.3005 40.3659 86.7116 40.3595 86.9556 40.3595C88.5484 40.3595 89.7366 40.6414 90.5202 41.205C91.3166 41.7687 91.7148 42.4925 91.7148 43.3764C91.7148 43.8248 91.5799 44.2796 91.3102 44.7407C91.0404 45.2019 90.623 45.6119 90.0578 45.9706C89.4926 46.3292 88.7604 46.5919 87.8612 46.7584V46.7968C89.0687 46.8865 90.0256 47.1043 90.7321 47.4502C91.4386 47.7961 91.946 48.2124 92.2543 48.6992C92.5626 49.186 92.7167 49.692 92.7167 50.2173C92.7167 51.4214 92.2415 52.3438 91.2909 52.9843C90.3532 53.6249 89.0558 53.9451 87.3988 53.9451C87.0905 53.9451 86.6409 53.9387 86.05 53.9259C85.472 53.9003 84.7784 53.8875 83.9691 53.8875C83.4039 53.8875 82.8451 53.8939 82.2928 53.9067C81.7533 53.9067 81.323 53.9195 81.0018 53.9451V53.5608C81.4129 53.5352 81.7212 53.4839 81.9267 53.4071C82.1322 53.3302 82.2671 53.1765 82.3313 52.9459C82.4084 52.7153 82.4469 52.3694 82.4469 51.9082V42.3772C82.4469 41.9032 82.4084 41.5573 82.3313 41.3395C82.2671 41.1089 82.1258 40.9552 81.9074 40.8784C81.7019 40.7887 81.4 40.7374 81.0018 40.7246V40.3403ZM86.7051 40.7246C86.2042 40.7246 85.8766 40.8335 85.7225 41.0513C85.5812 41.2691 85.5105 41.711 85.5105 42.3772V51.9082C85.5105 52.5744 85.594 53.01 85.761 53.2149C85.928 53.4071 86.2877 53.5032 86.84 53.5032C87.7649 53.5032 88.4393 53.2149 88.8632 52.6384C89.2999 52.0492 89.5183 51.2165 89.5183 50.1404C89.5183 49.154 89.2678 48.3917 88.7668 47.8537C88.2787 47.3157 87.463 47.0466 86.3198 47.0466H84.682C84.682 47.0466 84.682 46.9954 84.682 46.8929C84.682 46.7776 84.682 46.72 84.682 46.72H86.3391C86.9428 46.72 87.4052 46.5791 87.7263 46.2972C88.0475 46.0026 88.2723 45.6183 88.4007 45.1443C88.5292 44.6575 88.5934 44.1386 88.5934 43.5878C88.5934 42.6398 88.4457 41.9288 88.1502 41.4548C87.8548 40.968 87.3731 40.7246 86.7051 40.7246Z" fill="white"/>
<path d="M101.661 40.3019L106.343 52.331C106.523 52.7922 106.722 53.1124 106.94 53.2918C107.172 53.4583 107.377 53.548 107.557 53.5608V53.9451C107.172 53.9195 106.716 53.9067 106.189 53.9067C105.675 53.8939 105.155 53.8875 104.628 53.8875C104.037 53.8875 103.479 53.8939 102.952 53.9067C102.425 53.9067 102.008 53.9195 101.7 53.9451V53.5608C102.355 53.5352 102.766 53.4263 102.933 53.2341C103.112 53.0292 103.074 52.6 102.817 51.9467L99.5415 43.0113L99.8883 42.5117L96.9596 50.1212C96.5999 51.0692 96.4201 51.7865 96.4201 52.2733C96.4329 52.7601 96.5935 53.0932 96.9018 53.2726C97.2101 53.4391 97.6211 53.5352 98.1349 53.5608V53.9451C97.711 53.9195 97.3064 53.9067 96.9211 53.9067C96.5357 53.8939 96.1439 53.8875 95.7457 53.8875C95.4631 53.8875 95.1934 53.8939 94.9365 53.9067C94.6924 53.9067 94.474 53.9195 94.2813 53.9451V53.5608C94.5511 53.5096 94.8273 53.3366 95.1099 53.042C95.3925 52.7473 95.6686 52.2477 95.9384 51.5431L100.331 40.3019C100.537 40.3147 100.755 40.3211 100.987 40.3211C101.231 40.3211 101.455 40.3147 101.661 40.3019ZM103.01 48.411V48.7953H97.2679L97.4606 48.411H103.01Z" fill="white"/>
<path d="M109.242 40.3403C109.563 40.3531 109.994 40.3659 110.533 40.3787C111.085 40.3916 111.631 40.398 112.171 40.398C112.787 40.398 113.385 40.3916 113.963 40.3787C114.541 40.3659 114.952 40.3595 115.196 40.3595C116.981 40.3595 118.317 40.6542 119.204 41.2435C120.09 41.8199 120.533 42.6398 120.533 43.7031C120.533 44.1386 120.443 44.5806 120.263 45.029C120.084 45.4645 119.775 45.8745 119.339 46.2588C118.915 46.6303 118.33 46.9313 117.585 47.1619C116.84 47.3797 115.902 47.4886 114.772 47.4886H112.922V47.1043H114.579C115.337 47.1043 115.909 46.9634 116.294 46.6815C116.692 46.3869 116.962 46.0026 117.103 45.5286C117.258 45.0418 117.335 44.5037 117.335 43.9145C117.335 42.9024 117.155 42.121 116.795 41.5701C116.435 41.0065 115.819 40.7246 114.945 40.7246C114.444 40.7246 114.117 40.8335 113.963 41.0513C113.821 41.2691 113.751 41.711 113.751 42.3772V51.9082C113.751 52.3694 113.783 52.7153 113.847 52.9459C113.924 53.1765 114.066 53.3302 114.271 53.4071C114.477 53.4839 114.785 53.5352 115.196 53.5608V53.9451C114.849 53.9195 114.412 53.9067 113.886 53.9067C113.359 53.8939 112.826 53.8875 112.286 53.8875C111.67 53.8875 111.085 53.8939 110.533 53.9067C109.994 53.9067 109.563 53.9195 109.242 53.9451V53.5608C109.653 53.5352 109.961 53.4839 110.167 53.4071C110.373 53.3302 110.507 53.1765 110.572 52.9459C110.649 52.7153 110.687 52.3694 110.687 51.9082V42.3772C110.687 41.9032 110.649 41.5573 110.572 41.3395C110.507 41.1089 110.366 40.9552 110.148 40.8784C109.942 40.7887 109.64 40.7374 109.242 40.7246V40.3403ZM112.884 47.1619C113.436 47.1747 113.911 47.2004 114.31 47.2388C114.721 47.2772 115.08 47.3157 115.389 47.3541C115.697 47.3797 115.973 47.3989 116.217 47.4117C117.386 47.5142 118.247 47.764 118.799 48.1612C119.364 48.5583 119.73 49.154 119.897 49.9482L120.34 51.9275C120.456 52.4399 120.578 52.7986 120.707 53.0035C120.835 53.2085 121.021 53.311 121.265 53.311C121.432 53.2982 121.567 53.2598 121.67 53.1957C121.786 53.1188 121.908 53.01 122.036 52.869L122.306 53.0996C121.959 53.4968 121.586 53.7786 121.188 53.9451C120.79 54.1245 120.308 54.2141 119.743 54.2141C119.05 54.2141 118.478 54.0668 118.028 53.7722C117.579 53.4775 117.283 52.9331 117.142 52.1388L116.795 50.2173C116.705 49.6792 116.596 49.2116 116.468 48.8145C116.339 48.4046 116.159 48.0843 115.928 47.8537C115.71 47.6103 115.401 47.4886 115.003 47.4886H112.922L112.884 47.1619Z" fill="white"/>
<path d="M124.124 40.3403C124.445 40.3531 124.876 40.3659 125.415 40.3787C125.968 40.3916 126.514 40.398 127.053 40.398C127.67 40.398 128.267 40.3916 128.845 40.3787C129.423 40.3659 129.834 40.3595 130.078 40.3595C131.864 40.3595 133.2 40.6542 134.086 41.2435C134.972 41.8199 135.415 42.6398 135.415 43.7031C135.415 44.1386 135.325 44.5806 135.146 45.029C134.966 45.4645 134.657 45.8745 134.221 46.2588C133.797 46.6303 133.212 46.9313 132.467 47.1619C131.722 47.3797 130.785 47.4886 129.654 47.4886H127.805V47.1043H129.462C130.219 47.1043 130.791 46.9634 131.176 46.6815C131.575 46.3869 131.844 46.0026 131.986 45.5286C132.14 45.0418 132.217 44.5037 132.217 43.9145C132.217 42.9024 132.037 42.121 131.677 41.5701C131.318 41.0065 130.701 40.7246 129.828 40.7246C129.327 40.7246 128.999 40.8335 128.845 41.0513C128.704 41.2691 128.633 41.711 128.633 42.3772V51.9082C128.633 52.3694 128.665 52.7153 128.729 52.9459C128.806 53.1765 128.948 53.3302 129.153 53.4071C129.359 53.4839 129.667 53.5352 130.078 53.5608V53.9451C129.731 53.9195 129.295 53.9067 128.768 53.9067C128.241 53.8939 127.708 53.8875 127.169 53.8875C126.552 53.8875 125.968 53.8939 125.415 53.9067C124.876 53.9067 124.445 53.9195 124.124 53.9451V53.5608C124.535 53.5352 124.844 53.4839 125.049 53.4071C125.255 53.3302 125.39 53.1765 125.454 52.9459C125.531 52.7153 125.569 52.3694 125.569 51.9082V42.3772C125.569 41.9032 125.531 41.5573 125.454 41.3395C125.39 41.1089 125.248 40.9552 125.03 40.8784C124.824 40.7887 124.523 40.7374 124.124 40.7246V40.3403ZM127.766 47.1619C128.318 47.1747 128.794 47.2004 129.192 47.2388C129.603 47.2772 129.963 47.3157 130.271 47.3541C130.579 47.3797 130.855 47.3989 131.099 47.4117C132.268 47.5142 133.129 47.764 133.681 48.1612C134.246 48.5583 134.613 49.154 134.78 49.9482L135.223 51.9275C135.338 52.4399 135.46 52.7986 135.589 53.0035C135.717 53.2085 135.903 53.311 136.148 53.311C136.315 53.2982 136.449 53.2598 136.552 53.1957C136.668 53.1188 136.79 53.01 136.918 52.869L137.188 53.0996C136.841 53.4968 136.469 53.7786 136.07 53.9451C135.672 54.1245 135.191 54.2141 134.625 54.2141C133.932 54.2141 133.36 54.0668 132.911 53.7722C132.461 53.4775 132.165 52.9331 132.024 52.1388L131.677 50.2173C131.587 49.6792 131.478 49.2116 131.35 48.8145C131.221 48.4046 131.042 48.0843 130.81 47.8537C130.592 47.6103 130.284 47.4886 129.885 47.4886H127.805L127.766 47.1619Z" fill="white"/>
<path d="M151.224 40.3403V40.7246C150.813 40.7759 150.498 40.8848 150.28 41.0513C150.074 41.205 149.939 41.4548 149.875 41.8007C149.811 42.1466 149.779 42.6334 149.779 43.2611V48.3533C149.779 49.186 149.721 49.9482 149.605 50.64C149.49 51.3318 149.284 51.9275 148.989 52.4271C148.655 52.9779 148.167 53.4135 147.524 53.7338C146.882 54.054 146.066 54.2141 145.077 54.2141C144.486 54.2141 143.883 54.1437 143.266 54.0028C142.65 53.8747 142.097 53.6249 141.609 53.2534C141.198 52.9075 140.883 52.5167 140.665 52.0812C140.447 51.6456 140.299 51.1332 140.222 50.5439C140.145 49.9418 140.106 49.2308 140.106 48.411V42.3772C140.106 41.9032 140.068 41.5573 139.991 41.3395C139.926 41.1089 139.791 40.9552 139.586 40.8784C139.38 40.7887 139.072 40.7374 138.661 40.7246V40.3403C138.982 40.3531 139.413 40.3659 139.952 40.3787C140.504 40.3916 141.076 40.398 141.667 40.398C142.258 40.398 142.823 40.3916 143.362 40.3787C143.915 40.3659 144.371 40.3531 144.73 40.3403V40.7246C144.294 40.7374 143.96 40.7887 143.729 40.8784C143.51 40.9552 143.362 41.1089 143.285 41.3395C143.208 41.5573 143.17 41.9032 143.17 42.3772V49.6216C143.17 50.4799 143.247 51.2037 143.401 51.7929C143.555 52.3694 143.825 52.805 144.21 53.0996C144.608 53.3943 145.148 53.5416 145.829 53.5416C146.728 53.5416 147.428 53.3302 147.929 52.9075C148.443 52.4847 148.802 51.9018 149.008 51.1588C149.226 50.403 149.336 49.5383 149.336 48.5647V43.4917C149.336 42.7871 149.291 42.2491 149.201 41.8776C149.111 41.4933 148.931 41.2178 148.661 41.0513C148.404 40.8848 148.006 40.7759 147.467 40.7246V40.3403C147.711 40.3531 148.032 40.3659 148.43 40.3787C148.828 40.3916 149.201 40.398 149.547 40.398C149.856 40.398 150.158 40.3916 150.453 40.3787C150.761 40.3659 151.018 40.3531 151.224 40.3403Z" fill="white"/>
<path d="M166.396 40.3403V40.7054C165.985 40.7951 165.542 40.9744 165.067 41.2435C164.604 41.5125 164.116 41.948 163.603 42.5501L159.98 46.8545L161.098 45.2596L165.683 52.3886C165.863 52.6833 166.056 52.9203 166.261 53.0996C166.467 53.279 166.737 53.4327 167.071 53.5608V53.9451C166.621 53.9195 166.12 53.9067 165.568 53.9067C165.015 53.8939 164.515 53.8875 164.065 53.8875C163.795 53.8875 163.468 53.8939 163.082 53.9067C162.697 53.9067 162.209 53.9195 161.618 53.9451V53.5608C162.145 53.5352 162.459 53.4647 162.562 53.3494C162.678 53.2213 162.633 53.0035 162.427 52.6961L159.633 48.1804C159.453 47.8857 159.293 47.668 159.152 47.527C159.01 47.3733 158.869 47.2708 158.728 47.2196C158.586 47.1555 158.4 47.1171 158.169 47.1043V46.7008C158.734 46.6879 159.235 46.5342 159.672 46.2396C160.121 45.9449 160.61 45.4966 161.136 44.8945L162.273 43.5301C162.761 42.9537 163.044 42.4605 163.121 42.0505C163.211 41.6278 163.127 41.3011 162.87 41.0705C162.626 40.8399 162.247 40.7182 161.734 40.7054V40.3403C162.209 40.3531 162.658 40.3659 163.082 40.3787C163.519 40.3916 164.02 40.398 164.585 40.398C165.33 40.398 165.934 40.3787 166.396 40.3403ZM159.73 40.3403V40.7246C159.319 40.7374 159.004 40.7887 158.786 40.8784C158.58 40.9552 158.445 41.1089 158.381 41.3395C158.317 41.5573 158.285 41.9032 158.285 42.3772V51.9082C158.285 52.3694 158.317 52.7153 158.381 52.9459C158.458 53.1765 158.599 53.3302 158.805 53.4071C159.01 53.4839 159.319 53.5352 159.73 53.5608V53.9451C159.383 53.9195 158.946 53.9067 158.419 53.9067C157.893 53.8939 157.36 53.8875 156.82 53.8875C156.204 53.8875 155.619 53.8939 155.067 53.9067C154.527 53.9067 154.097 53.9195 153.776 53.9451V53.5608C154.187 53.5352 154.495 53.4839 154.701 53.4071C154.906 53.3302 155.041 53.1765 155.105 52.9459C155.182 52.7153 155.221 52.3694 155.221 51.9082V42.3772C155.221 41.9032 155.182 41.5573 155.105 41.3395C155.041 41.1089 154.9 40.9552 154.681 40.8784C154.476 40.7887 154.174 40.7374 153.776 40.7246V40.3403C154.097 40.3531 154.527 40.3659 155.067 40.3787C155.619 40.3916 156.204 40.398 156.82 40.398C157.36 40.398 157.893 40.3916 158.419 40.3787C158.946 40.3659 159.383 40.3531 159.73 40.3403Z" fill="white"/>
<path d="M185 40.3403V40.7246L178.41 53.5032H180.414C180.851 53.5032 181.287 53.4327 181.724 53.2918C182.174 53.1509 182.585 52.9203 182.957 52.6C183.342 52.2798 183.67 51.857 183.94 51.3318C184.21 50.7937 184.389 50.1276 184.479 49.3333H184.922C184.884 49.7689 184.865 50.3325 184.865 51.0243C184.865 51.319 184.871 51.7353 184.884 52.2733C184.897 52.8114 184.935 53.3686 185 53.9451C184.293 53.9195 183.49 53.9067 182.591 53.9067C181.705 53.8939 180.908 53.8875 180.202 53.8875C179.367 53.8875 178.493 53.8939 177.581 53.9067C176.669 53.9067 175.815 53.9195 175.019 53.9451V53.5608L181.628 40.7823H179.547C178.904 40.7823 178.314 40.904 177.774 41.1474C177.235 41.378 176.785 41.7815 176.425 42.358C176.066 42.9216 175.822 43.7095 175.693 44.7215H175.25C175.276 44.5422 175.288 44.3244 175.288 44.0682C175.301 43.812 175.308 43.543 175.308 43.2611C175.308 42.9665 175.295 42.5501 175.269 42.0121C175.256 41.474 175.224 40.9168 175.173 40.3403C175.815 40.3659 176.534 40.3851 177.331 40.398C178.14 40.398 178.866 40.398 179.508 40.398C180.369 40.398 181.287 40.398 182.263 40.398C183.24 40.3851 184.152 40.3659 185 40.3403Z" fill="white"/>
<path d="M194.008 40.3403V40.7246C193.597 40.7374 193.283 40.7887 193.064 40.8784C192.859 40.9552 192.724 41.1089 192.66 41.3395C192.596 41.5573 192.563 41.9032 192.563 42.3772V51.9082C192.563 52.3694 192.596 52.7153 192.66 52.9459C192.737 53.1765 192.878 53.3302 193.084 53.4071C193.289 53.4839 193.597 53.5352 194.008 53.5608V53.9451C193.662 53.9195 193.225 53.9067 192.698 53.9067C192.172 53.8939 191.639 53.8875 191.099 53.8875C190.47 53.8875 189.885 53.8939 189.346 53.9067C188.819 53.9067 188.389 53.9195 188.055 53.9451V53.5608C188.466 53.5352 188.774 53.4839 188.98 53.4071C189.185 53.3302 189.32 53.1765 189.384 52.9459C189.461 52.7153 189.5 52.3694 189.5 51.9082V42.3772C189.5 41.9032 189.461 41.5573 189.384 41.3395C189.32 41.1089 189.179 40.9552 188.96 40.8784C188.755 40.7887 188.453 40.7374 188.055 40.7246V40.3403C188.389 40.3531 188.819 40.3659 189.346 40.3787C189.885 40.3916 190.47 40.398 191.099 40.398C191.639 40.398 192.172 40.3916 192.698 40.3787C193.225 40.3659 193.662 40.3531 194.008 40.3403Z" fill="white"/>
<path d="M208.074 40.3211V40.7054C207.791 40.8207 207.502 41.0513 207.207 41.3972C206.911 41.7303 206.584 42.2427 206.224 42.9344L202.582 50.1212H201.677L197.168 41.8007C196.937 41.3652 196.725 41.0769 196.532 40.936C196.352 40.7951 196.192 40.7246 196.05 40.7246V40.3211C196.397 40.3595 196.751 40.3851 197.11 40.398C197.483 40.4108 197.887 40.4172 198.324 40.4172C198.889 40.4172 199.499 40.4108 200.154 40.398C200.81 40.3723 201.407 40.3467 201.946 40.3211V40.7246C201.625 40.7246 201.336 40.7502 201.079 40.8015C200.822 40.8527 200.643 40.9488 200.54 41.0897C200.437 41.2178 200.463 41.4292 200.617 41.7239L203.661 47.5655L203.064 48.3341L205.049 44.3564C205.524 43.4341 205.774 42.7103 205.8 42.185C205.839 41.6598 205.71 41.2883 205.415 41.0705C205.132 40.8399 204.727 40.7182 204.201 40.7054V40.3211C204.638 40.3339 205.049 40.3467 205.434 40.3595C205.819 40.3723 206.211 40.3787 206.609 40.3787C206.892 40.3787 207.155 40.3723 207.399 40.3595C207.656 40.3467 207.881 40.3339 208.074 40.3211ZM203.95 47.0851V51.9082C203.95 52.3694 203.982 52.7153 204.047 52.9459C204.124 53.1765 204.265 53.3302 204.471 53.4071C204.676 53.4839 204.984 53.5352 205.395 53.5608V53.9451C205.049 53.9195 204.599 53.9067 204.047 53.9067C203.507 53.8939 202.968 53.8875 202.428 53.8875C201.824 53.8875 201.253 53.8939 200.713 53.9067C200.174 53.9067 199.75 53.9195 199.442 53.9451V53.5608C199.853 53.5352 200.161 53.4839 200.366 53.4071C200.572 53.3302 200.707 53.1765 200.771 52.9459C200.848 52.7153 200.887 52.3694 200.887 51.9082V47.969L202.563 49.1604L203.95 47.0851Z" fill="white"/>
<path d="M216.628 40.0713C217.99 40.0713 219.178 40.3467 220.193 40.8976C221.22 41.4484 222.017 42.2427 222.582 43.2803C223.147 44.3052 223.43 45.5542 223.43 47.0274C223.43 48.4622 223.141 49.7176 222.563 50.7937C221.985 51.8698 221.175 52.7089 220.135 53.311C219.107 53.9131 217.932 54.2141 216.609 54.2141C215.247 54.2141 214.053 53.9387 213.025 53.3879C212.01 52.837 211.22 52.0428 210.655 51.0051C210.09 49.9674 209.807 48.7184 209.807 47.258C209.807 45.8232 210.096 44.5678 210.674 43.4917C211.265 42.4156 212.068 41.5765 213.083 40.9744C214.111 40.3723 215.292 40.0713 216.628 40.0713ZM216.551 40.4172C215.832 40.4172 215.202 40.7054 214.663 41.2819C214.136 41.8584 213.725 42.6526 213.43 43.6647C213.147 44.6767 213.006 45.8489 213.006 47.1811C213.006 48.5391 213.166 49.724 213.488 50.7361C213.822 51.7353 214.265 52.5103 214.817 53.0612C215.382 53.5992 216.005 53.8683 216.686 53.8683C217.405 53.8683 218.028 53.58 218.555 53.0035C219.095 52.4271 219.506 51.6328 219.788 50.6208C220.084 49.5959 220.231 48.4238 220.231 47.1043C220.231 45.7336 220.064 44.5486 219.73 43.5494C219.409 42.5501 218.966 41.7815 218.401 41.2435C217.849 40.6926 217.232 40.4172 216.551 40.4172Z" fill="white"/>
<path d="M226.304 40.3403C226.625 40.3531 227.055 40.3659 227.595 40.3787C228.147 40.3916 228.693 40.398 229.232 40.398C229.849 40.398 230.446 40.3916 231.024 40.3787C231.602 40.3659 232.014 40.3595 232.258 40.3595C234.043 40.3595 235.379 40.6542 236.265 41.2435C237.152 41.8199 237.595 42.6398 237.595 43.7031C237.595 44.1386 237.505 44.5806 237.325 45.029C237.145 45.4645 236.837 45.8745 236.4 46.2588C235.976 46.6303 235.392 46.9313 234.647 47.1619C233.902 47.3797 232.964 47.4886 231.834 47.4886H229.984V47.1043H231.641C232.399 47.1043 232.97 46.9634 233.356 46.6815C233.754 46.3869 234.024 46.0026 234.165 45.5286C234.319 45.0418 234.396 44.5037 234.396 43.9145C234.396 42.9024 234.216 42.121 233.857 41.5701C233.497 41.0065 232.881 40.7246 232.007 40.7246C231.506 40.7246 231.179 40.8335 231.024 41.0513C230.883 41.2691 230.812 41.711 230.812 42.3772V51.9082C230.812 52.3694 230.845 52.7153 230.909 52.9459C230.986 53.1765 231.127 53.3302 231.333 53.4071C231.538 53.4839 231.847 53.5352 232.258 53.5608V53.9451C231.911 53.9195 231.474 53.9067 230.947 53.9067C230.421 53.8939 229.888 53.8875 229.348 53.8875C228.732 53.8875 228.147 53.8939 227.595 53.9067C227.055 53.9067 226.625 53.9195 226.304 53.9451V53.5608C226.715 53.5352 227.023 53.4839 227.229 53.4071C227.434 53.3302 227.569 53.1765 227.633 52.9459C227.71 52.7153 227.749 52.3694 227.749 51.9082V42.3772C227.749 41.9032 227.71 41.5573 227.633 41.3395C227.569 41.1089 227.428 40.9552 227.209 40.8784C227.004 40.7887 226.702 40.7374 226.304 40.7246V40.3403ZM229.945 47.1619C230.498 47.1747 230.973 47.2004 231.371 47.2388C231.782 47.2772 232.142 47.3157 232.45 47.3541C232.759 47.3797 233.035 47.3989 233.279 47.4117C234.448 47.5142 235.308 47.764 235.861 48.1612C236.426 48.5583 236.792 49.154 236.959 49.9482L237.402 51.9275C237.518 52.4399 237.64 52.7986 237.768 53.0035C237.897 53.2085 238.083 53.311 238.327 53.311C238.494 53.2982 238.629 53.2598 238.732 53.1957C238.847 53.1188 238.969 53.01 239.098 52.869L239.367 53.0996C239.021 53.4968 238.648 53.7786 238.25 53.9451C237.852 54.1245 237.37 54.2141 236.805 54.2141C236.111 54.2141 235.54 54.0668 235.09 53.7722C234.64 53.4775 234.345 52.9331 234.204 52.1388L233.857 50.2173C233.767 49.6792 233.658 49.2116 233.529 48.8145C233.401 48.4046 233.221 48.0843 232.99 47.8537C232.771 47.6103 232.463 47.4886 232.065 47.4886H229.984L229.945 47.1619Z" fill="white"/>
<path d="M247.621 40.3019L252.304 52.331C252.483 52.7922 252.682 53.1124 252.901 53.2918C253.132 53.4583 253.338 53.548 253.517 53.5608V53.9451C253.132 53.9195 252.676 53.9067 252.149 53.9067C251.636 53.8939 251.115 53.8875 250.589 53.8875C249.998 53.8875 249.439 53.8939 248.912 53.9067C248.386 53.9067 247.968 53.9195 247.66 53.9451V53.5608C248.315 53.5352 248.726 53.4263 248.893 53.2341C249.073 53.0292 249.034 52.6 248.778 51.9467L245.502 43.0113L245.849 42.5117L242.92 50.1212C242.56 51.0692 242.381 51.7865 242.381 52.2733C242.393 52.7601 242.554 53.0932 242.862 53.2726C243.171 53.4391 243.582 53.5352 244.095 53.5608V53.9451C243.672 53.9195 243.267 53.9067 242.882 53.9067C242.496 53.8939 242.104 53.8875 241.706 53.8875C241.424 53.8875 241.154 53.8939 240.897 53.9067C240.653 53.9067 240.435 53.9195 240.242 53.9451V53.5608C240.512 53.5096 240.788 53.3366 241.07 53.042C241.353 52.7473 241.629 52.2477 241.899 51.5431L246.292 40.3019C246.497 40.3147 246.716 40.3211 246.947 40.3211C247.191 40.3211 247.416 40.3147 247.621 40.3019ZM248.97 48.411V48.7953H243.228L243.421 48.411H248.97Z" fill="white"/>
<path d="M265.977 40.3403C265.925 40.9937 265.887 41.6214 265.861 42.2235C265.848 42.8256 265.842 43.2867 265.842 43.607C265.842 43.8888 265.848 44.1579 265.861 44.4141C265.874 44.6703 265.887 44.8881 265.9 45.0674H265.456C265.251 43.9913 264.988 43.1394 264.667 42.5117C264.358 41.884 263.986 41.442 263.549 41.1858C263.112 40.9168 262.598 40.7823 262.008 40.7823H261.564V51.7545C261.564 52.2669 261.616 52.6513 261.719 52.9075C261.834 53.1637 262.04 53.3366 262.335 53.4263C262.631 53.5032 263.061 53.548 263.626 53.5608V53.9451C263.228 53.9323 262.695 53.9195 262.027 53.9067C261.372 53.8939 260.684 53.8875 259.965 53.8875C259.259 53.8875 258.591 53.8939 257.961 53.9067C257.332 53.9195 256.824 53.9323 256.439 53.9451V53.5608C257.017 53.548 257.454 53.5032 257.749 53.4263C258.045 53.3366 258.244 53.1637 258.347 52.9075C258.449 52.6513 258.501 52.2669 258.501 51.7545V40.7823H258.077C257.486 40.7823 256.972 40.9168 256.535 41.1858C256.099 41.442 255.726 41.884 255.418 42.5117C255.11 43.1266 254.84 43.9785 254.609 45.0674H254.165C254.191 44.8881 254.204 44.6703 254.204 44.4141C254.217 44.1579 254.223 43.8888 254.223 43.607C254.223 43.2867 254.21 42.8256 254.185 42.2235C254.172 41.6214 254.14 40.9937 254.088 40.3403C254.679 40.3531 255.322 40.3659 256.015 40.3787C256.722 40.3916 257.428 40.398 258.135 40.398C258.841 40.398 259.477 40.398 260.042 40.398C260.62 40.398 261.256 40.398 261.95 40.398C262.656 40.398 263.363 40.3916 264.069 40.3787C264.776 40.3659 265.412 40.3531 265.977 40.3403Z" fill="white"/>
</g>
<defs>
<filter id="filter0_d_358_23573" x="3.51013" y="0.0712891" width="312.467" height="114.143" filterUnits="userSpaceOnUse" color-interpolation-filters="sRGB">
<feFlood flood-opacity="0" result="BackgroundImageFix"/>
<feColorMatrix in="SourceAlpha" type="matrix" values="0 0 0 0 0 0 0 0 0 0 0 0 0 0 0 0 0 0 127 0" result="hardAlpha"/>
<feOffset dy="10"/>
<feGaussianBlur stdDeviation="25"/>
<feComposite in2="hardAlpha" operator="out"/>
<feColorMatrix type="matrix" values="0 0 0 0 0.0460937 0 0 0 0 0.0602344 0 0 0 0 0.1875 0 0 0 0.4 0"/>
<feBlend mode="normal" in2="BackgroundImageFix" result="effect1_dropShadow_358_23573"/>
<feBlend mode="normal" in="SourceGraphic" in2="effect1_dropShadow_358_23573" result="shape"/>
</filter>
</defs>
</svg>
